# xmcd CD database file
#
# Track frame offsets:
#	182
#	18757
#	37885
#	53965
#	68780
#	87540
#	101195
#	118917
#	131392
#	145672
#	159057
#	173762
#	187465
#	199747
#	211930
#
# Disc length: 2984 seconds
#
# Revision: 5
# Processed by: cddbd v1.5.1PL0 Copyright (c) Steve Scherf et al.
# Submitted via: CDex 1.51
#
DISCID=d10ba60f
DTITLE=Demônios da Garoa - 50 Anos
DYEAR=1900
DGENRE=Samba
TTITLE0=Seu Querer
TTITLE1=Clarice
TTITLE2=Poeta e Cantor
TTITLE3=Tiro ao Álvaro
TTITLE4=Menina Moça
TTITLE5=O Bigode do Rapaz 'Batucada'
TTITLE6=Giuseppe é a Crise
TTITLE7=Eu e Deus na Intimidade
TTITLE8=Meu Jeito de Amar
TTITLE9=Marcha de Espera
TTITLE10=Vem Cantar Comigo
TTITLE11=Amor de Trapo e Farrapo
TTITLE12=Trem das Onze
TTITLE13=Saudosa Maloca
TTITLE14=Samba do Arnesto
EXTD=
EXTT0=
EXTT1=
EXTT2=
EXTT3=
EXTT4=
EXTT5=
EXTT6=
EXTT7=
EXTT8=
EXTT9=
EXTT10=
EXTT11=
EXTT12=
EXTT13=
EXTT14=
PLAYORDER=
